<svg width="27" height="13" viewBox="0 0 27 13" fill="none" xmlns="http://www.w3.org/2000/svg">
<path d="M7.15805 0.227774C6.83984 -0.0750293 6.32306 -0.0750293 6.00495 0.227774L0.236963 5.7181L0.0624173 5.96783L0.00213313 6.25356L0 6.26432V6.27279L0.0618608 6.5611L0.239282 6.81341L6.00458 12.3014C6.32269 12.6041 6.84012 12.6035 7.15767 12.3014C7.47523 11.9991 7.47579 11.5066 7.15767 11.2037L2.78411 7.04077L26.1833 7.04062C26.6333 7.04105 26.9992 6.69264 26.9987 6.26447C26.9993 5.8373 26.6333 5.48888 26.1834 5.48845L2.7842 5.4886L7.15805 1.32524C7.47616 1.02243 7.47616 0.530433 7.15805 0.227774Z" fill="white"/>
<path d="M7.15805 0.227774C6.83984 -0.0750293 6.32306 -0.0750293 6.00495 0.227774L0.236963 5.7181L0.0624173 5.96783L0.00213313 6.25356L0 6.26432V6.27279L0.0618608 6.5611L0.239282 6.81341L6.00458 12.3014C6.32269 12.6041 6.84012 12.6035 7.15767 12.3014C7.47523 11.9991 7.47579 11.5066 7.15767 11.2037L2.78411 7.04077L26.1833 7.04062C26.6333 7.04105 26.9992 6.69264 26.9987 6.26447C26.9993 5.8373 26.6333 5.48888 26.1834 5.48845L2.7842 5.4886L7.15805 1.32524C7.47616 1.02243 7.47616 0.530433 7.15805 0.227774Z" fill="white"/>
</svg>
